<svg width="2077" height="511" viewBox="0 0 2077 511" fill="none" xmlns="http://www.w3.org/2000/svg">
<path d="M0.708496 12.8769C0.708496 23.8694 1.65069 25.4397 8.24617 25.4397C12.3291 25.4397 20.1808 26.3819 25.52 27.3242L35.2562 29.2085V470.477L25.52 472.676C20.1808 473.618 12.3291 474.56 8.24617 474.56C1.33662 474.56 0.708496 475.817 0.708496 488.693V502.827H167.166V475.502L151.462 473.304L135.759 471.105L135.445 379.397C135.445 328.832 134.817 283.92 134.502 278.895L133.874 270.415H355.608V471.105L336.45 473.304L317.605 475.502L318.548 488.379L319.49 501.256H485.947L486.889 487.751C487.832 475.503 487.203 474.56 480.294 474.56C475.897 474.56 468.045 473.618 462.706 472.676L452.97 470.477V29.2085L462.706 27.3242C468.045 26.3819 475.897 25.4397 479.98 25.4397C486.575 25.4397 487.518 23.8694 487.518 12.8769V0.314087H317.92V24.4975L336.764 26.696L355.608 28.8945V217.023H348.698C186.01 217.337 137.329 217.023 136.701 215.766C136.073 214.824 135.759 172.111 135.759 121.231V28.8945L151.462 26.696L167.166 24.4975V0.314087H0.708496V12.8769ZM616.286 7.22362C592.731 23.5553 585.193 48.3668 597.128 71.608C620.055 116.834 691.663 101.445 691.663 51.5076C691.663 21.0427 671.563 0.314087 642.668 0.314087C631.362 0.314087 623.824 2.1985 616.286 7.22362ZM789.025 10.9925C789.025 21.3568 789.339 21.6709 804.729 23.5553L820.432 25.7538V474.56L813.523 476.131C809.44 476.759 802.844 478.015 798.447 478.329C791.852 479.271 790.595 481.156 789.653 490.892L788.711 502.513L867.543 502.827H946.374L945.432 491.206C944.49 481.156 943.234 479.271 936.638 478.329C932.241 478.015 925.646 476.759 921.877 476.131L914.653 474.56V0.314087H789.025V10.9925ZM1114.09 48.995C1107.18 51.5076 1089.28 57.1608 1074.2 61.5578L1046.56 69.7237V144.472L1012.96 145.415L979.038 146.357V174.623L1011.07 176.193L1043.11 177.764L1044.36 311.244C1045.62 450.377 1046.25 457.601 1060.07 478.015C1081.11 509.422 1149.89 514.447 1229.67 490.264C1250.71 483.668 1250.71 483.668 1250.71 472.048V460.427L1212.39 461.369C1167.17 462.312 1155.86 458.543 1145.49 438.128C1139.53 426.508 1139.21 419.598 1139.21 301.822V177.764L1180.98 176.822L1222.44 175.879V145.101L1180.98 144.158L1139.21 143.216L1138.27 93.593C1137.33 38.3166 1138.59 40.8292 1114.09 48.995ZM1418.74 137.249C1387.02 144.158 1362.83 153.266 1343.36 166.771C1295.31 200.063 1270.18 249.686 1267.04 317.525C1262.96 420.854 1302.22 483.04 1385.76 505.025C1414.65 512.563 1486.58 512.563 1514.21 504.711C1574.52 488.065 1616.91 449.749 1636.39 394.786C1642.67 377.199 1644.55 364.636 1645.81 334.171C1648.32 266.96 1633.25 222.048 1596.5 185.616C1559.75 149.183 1521.12 135.05 1459.88 135.678C1440.72 135.992 1422.19 136.621 1418.74 137.249ZM1479.04 165.201C1490.34 168.656 1498.51 173.995 1507.93 184.045C1534 212.312 1544.05 252.199 1544.05 323.807C1544.05 436.558 1515.78 485.867 1452.66 484.611C1398.32 483.354 1369.74 428.392 1369.43 325.377C1369.11 254.397 1379.79 211.683 1403.97 185.301C1425.96 161.746 1447.63 155.779 1479.04 165.201ZM1893.92 144.472C1873.51 151.068 1853.1 162.374 1829.54 179.648C1820.43 186.558 1812.27 191.897 1811.32 191.897C1810.38 191.897 1809.75 181.219 1809.75 168.342V144.786H1684.13V168.97L1699.83 171.168L1715.53 173.367V473.932L1708.62 475.817C1704.54 476.759 1697.63 477.701 1692.92 477.701C1684.75 477.701 1684.13 478.643 1684.13 490.264V502.827L1763.59 502.198L1842.73 501.256V490.264C1842.73 479.585 1842.42 479.271 1826.4 476.759L1809.75 473.932V217.337L1837.39 203.832C1861.58 191.897 1867.23 190.327 1887.01 190.327C1905.86 190.327 1911.2 191.583 1921.88 198.807C1947.94 216.08 1950.46 231.47 1951.09 366.834V473.932L1934.75 476.759C1918.42 479.271 1918.11 479.585 1918.11 490.264V501.256L1995.37 502.198C2079.54 503.141 2079.23 503.141 2074.83 485.553C2073.26 479.585 2070.12 477.701 2057.56 476.131L2042.17 473.932V352.387C2042.17 273.241 2040.91 224.246 2038.71 212.626C2031.49 177.45 2007.3 149.498 1977.15 141.96C1956.74 136.621 1914.34 137.877 1893.92 144.472ZM562.894 155.465C562.894 166.143 563.208 166.457 578.598 168.97L594.616 171.482V321.922C594.301 404.837 593.673 472.99 593.045 473.932C592.103 474.56 584.879 476.131 577.028 477.073C562.58 478.643 562.58 478.643 563.523 489.95L564.465 501.256H718.359L719.301 489.95L720.244 478.643L704.54 476.445L688.523 474.246V144.786H562.894V155.465Z" fill="black"/>
</svg>
