<svg width="179" height="30" viewBox="0 0 179 30" fill="none" xmlns="http://www.w3.org/2000/svg">
<path d="M24.1374 23.295H23.0156V0.751465H24.1374V23.295Z" fill="white"/>
<path d="M92.8076 23.6939C90.0783 23.6939 87.8811 22.8224 86.2158 21.0899L87.1063 20.3444C88.4478 21.9614 90.3443 22.7804 92.796 22.7804C94.4035 22.7804 95.6987 22.4234 96.6701 21.7199C97.6415 21.0059 98.1272 20.1029 98.1272 19.0004C98.1272 18.0764 97.734 17.3414 96.9361 16.8059C96.1381 16.2704 95.1783 15.8609 94.0565 15.6089C92.9232 15.3464 91.8015 15.0839 90.6681 14.8004C89.5348 14.5169 88.575 14.0654 87.7886 13.4354C86.9906 12.8054 86.5974 11.9654 86.5974 10.9049C86.5974 9.66586 87.141 8.63686 88.2396 7.81786C89.3267 6.99886 90.8185 6.58936 92.7035 6.58936C95.4096 6.58936 97.468 7.40836 98.8789 9.05686L98.0578 9.72885C96.9129 8.23785 95.132 7.50286 92.7035 7.50286C91.1654 7.50286 89.9511 7.82835 89.0607 8.46885C88.1702 9.10935 87.7192 9.92836 87.7192 10.9154C87.7192 11.7449 88.1124 12.4064 88.9103 12.8894C89.7083 13.3724 90.6681 13.7399 91.7899 13.9919C92.9232 14.2439 94.045 14.5064 95.1783 14.8004C96.3116 15.0944 97.2714 15.5879 98.0578 16.2704C98.8558 16.9634 99.249 17.8769 99.249 19.0214C99.249 20.3759 98.6939 21.4994 97.5952 22.3814C96.4851 23.2529 94.8892 23.6939 92.8076 23.6939Z" fill="white"/>
<path d="M112.27 23.6941C110.951 23.6941 109.737 23.4106 108.604 22.8331C107.47 22.2556 106.534 21.4786 105.794 20.4811V29.5006H104.672V6.9781H105.794V9.7186C106.441 8.8156 107.343 8.0701 108.511 7.4716C109.679 6.8731 110.928 6.5791 112.27 6.5791C114.698 6.5791 116.653 7.3561 118.11 8.9101C119.578 10.4641 120.307 12.5326 120.307 15.1261C120.307 17.6986 119.567 19.7671 118.098 21.3421C116.618 22.9066 114.675 23.6941 112.27 23.6941ZM112.27 22.7911C114.398 22.7911 116.074 22.0666 117.277 20.6281C118.48 19.1896 119.081 17.3521 119.081 15.1156C119.081 12.8791 118.48 11.0521 117.277 9.6241C116.074 8.1961 114.409 7.4821 112.27 7.4821C110.928 7.4821 109.668 7.7971 108.477 8.4271C107.285 9.0571 106.395 9.8236 105.794 10.7266V19.4731C106.383 20.3761 107.285 21.1531 108.477 21.8041C109.668 22.4656 110.928 22.7911 112.27 22.7911Z" fill="white"/>
<path d="M138.325 23.2951H137.203V21.3001C135.596 22.8961 133.514 23.6941 130.993 23.6941C129.305 23.6941 127.836 23.2006 126.587 22.2241C125.338 21.2476 124.702 19.9246 124.702 18.2551C124.702 16.5856 125.327 15.2626 126.564 14.2861C127.801 13.3096 129.282 12.8161 130.993 12.8161C133.526 12.8161 135.596 13.6141 137.203 15.2101V11.5351C137.203 10.2751 136.718 9.2776 135.746 8.5636C134.775 7.8391 133.572 7.4821 132.138 7.4821C129.86 7.4821 127.929 8.3431 126.367 10.0546L125.512 9.3826C126.425 8.4166 127.397 7.7026 128.414 7.2511C129.432 6.7996 130.669 6.5791 132.138 6.5791C133.977 6.5791 135.457 6.9991 136.602 7.8496C137.747 8.6896 138.314 9.9181 138.314 11.5141V23.2951H138.325ZM131.282 22.7911C133.838 22.7911 135.816 21.9616 137.203 20.2921V16.2391C135.816 14.5696 133.838 13.7401 131.282 13.7401C129.675 13.7401 128.368 14.1706 127.397 15.0421C126.414 15.9136 125.928 16.9846 125.928 18.2656C125.928 19.5466 126.414 20.6281 127.397 21.4891C128.38 22.3501 129.675 22.7911 131.282 22.7911Z" fill="white"/>
<path d="M152.236 23.6941C149.704 23.6941 147.657 22.8646 146.096 21.2056C144.534 19.5466 143.748 17.5201 143.748 15.1051C143.748 12.6901 144.534 10.6636 146.096 9.02561C147.657 7.37711 149.704 6.55811 152.236 6.55811C153.624 6.55811 154.792 6.7786 155.729 7.2301C156.677 7.6816 157.556 8.36411 158.366 9.28811L157.544 9.8971C156.226 8.2801 154.48 7.46111 152.294 7.46111C150.039 7.46111 148.247 8.1856 146.94 9.6451C145.621 11.0941 144.962 12.9211 144.962 15.1051C144.962 17.3101 145.621 19.1476 146.951 20.5966C148.281 22.0456 150.062 22.7806 152.294 22.7806C154.457 22.7806 156.203 21.9616 157.544 20.3131L158.366 20.9536C157.544 21.8776 156.666 22.5601 155.729 23.0116C154.792 23.4736 153.624 23.6941 152.236 23.6941Z" fill="white"/>
<path d="M170.925 23.6941C168.323 23.6941 166.196 22.8856 164.565 21.2791C162.923 19.6726 162.113 17.6146 162.113 15.1156C162.113 12.7321 162.923 10.7056 164.53 9.0466C166.138 7.3876 168.15 6.55811 170.555 6.55811C173.18 6.55811 175.227 7.37711 176.696 9.02561C178.165 10.6741 178.893 12.7006 178.893 15.1051V15.4411H163.374C163.42 17.5096 164.137 19.2526 165.513 20.6596C166.889 22.0666 168.693 22.7701 170.925 22.7701C173.4 22.7701 175.493 21.9511 177.182 20.3026L177.853 20.9431C175.91 22.7911 173.597 23.6941 170.925 23.6941ZM177.691 14.5381C177.691 13.4356 177.448 12.3541 176.95 11.3146C176.453 10.2646 175.644 9.36161 174.51 8.61611C173.377 7.86011 172.047 7.4821 170.509 7.4821C168.347 7.4821 166.635 8.20661 165.374 9.66611C164.114 11.1151 163.443 12.7426 163.362 14.5486H177.691V14.5381Z" fill="white"/>
<path d="M85.1051 26.2666H0.834961V27.0751H85.1051V26.2666Z" fill="white"/>
<path d="M9.55454 6.56836C8.23619 6.56836 7.02192 6.85186 5.88861 7.42936C5.26413 7.74436 4.69747 8.13286 4.2002 8.58436V9.52936V9.77086C4.38523 9.51886 4.58182 9.28786 4.78998 9.06736C5.42603 8.40586 6.15459 7.84936 7.01036 7.41886C8.0049 6.91486 9.06883 6.64186 10.2021 6.57886C9.98242 6.57886 9.77426 6.56836 9.55454 6.56836Z" fill="white"/>
<path d="M14.5619 9.64518C15.7647 11.0837 16.366 12.9212 16.366 15.1577C16.366 17.3837 15.7647 19.2212 14.5619 20.6492C13.4865 21.9302 12.0293 22.6337 10.2021 22.7702C10.3641 22.7807 10.5144 22.8017 10.6763 22.8017C12.8042 22.8017 14.481 22.0877 15.6837 20.6597C16.8864 19.2317 17.4878 17.3942 17.4878 15.1682C17.4878 12.9422 16.8864 11.1047 15.6837 9.65568C14.481 8.21718 12.8157 7.49268 10.6763 7.49268C10.526 7.49268 10.3756 7.51367 10.2137 7.52417C12.0293 7.65017 13.4865 8.35368 14.5619 9.64518Z" fill="white"/>
<path d="M3.07894 19.5465V10.7895V9.78147V0.751465H1.96875V23.295H3.07894V20.5545V19.5465Z" fill="white"/>
<path d="M6.91784 22.8017C6.03894 22.3502 5.29882 21.8042 4.7206 21.1847C4.53556 20.9852 4.3621 20.7752 4.2002 20.5547V20.7962V21.7517C4.66277 22.1402 5.19474 22.4972 5.79609 22.8017C6.9641 23.4002 8.21306 23.6942 9.55454 23.6942C9.77426 23.6942 9.98242 23.6837 10.2021 23.6627C9.03414 23.6102 7.93551 23.3267 6.91784 22.8017Z" fill="white"/>
<path d="M43.2762 11.5349C43.2762 10.2749 42.7905 9.27744 41.8191 8.56344C40.8477 7.83894 39.645 7.48193 38.211 7.48193C38.0375 7.48193 37.8756 7.49243 37.7021 7.50293C38.8702 7.58693 39.8763 7.94394 40.7089 8.56344C41.6803 9.28794 42.166 10.2749 42.166 11.5349V14.2964C42.5592 14.5694 42.9293 14.8739 43.2878 15.2204V11.5349H43.2762Z" fill="white"/>
<path d="M42.1545 15.168C42.0851 15.1155 42.0042 15.063 41.9232 15.0105C40.6974 14.16 39.1709 13.7295 37.3553 13.7295C37.1471 13.7295 36.9505 13.74 36.7539 13.7505C39.0552 13.8555 40.8593 14.6745 42.1545 16.2285V20.2815C40.8593 21.8355 39.0552 22.6545 36.7539 22.7595C36.9505 22.77 37.1471 22.7805 37.3553 22.7805C39.1709 22.7805 40.6858 22.35 41.9232 21.51C42.0042 21.4575 42.0851 21.405 42.1661 21.3525C42.5708 21.048 42.9409 20.691 43.2878 20.292V16.239C42.9293 15.8295 42.5593 15.4725 42.1545 15.168Z" fill="white"/>
<path d="M37.7369 6.58936C37.5288 6.57886 37.3091 6.56836 37.0893 6.56836C35.6206 6.56836 34.3832 6.78886 33.3656 7.24036C32.3479 7.69186 31.3765 8.40586 30.4629 9.37186L31.3187 10.0439C32.8452 7.11436 36.488 6.63136 37.7369 6.58936Z" fill="white"/>
<path d="M30.7634 18.2549C30.7634 16.5854 31.3878 15.2624 32.6252 14.2859C33.7239 13.4249 35.0075 12.9419 36.4646 12.8369C36.2912 12.8264 36.1177 12.8159 35.9327 12.8159C34.2211 12.8159 32.7409 13.3094 31.5035 14.2859C30.2661 15.2624 29.6416 16.5854 29.6416 18.2549C29.6416 19.9244 30.2661 21.2474 31.5266 22.2239C32.7756 23.2004 34.2443 23.6939 35.9327 23.6939C36.1177 23.6939 36.2796 23.6834 36.4531 23.6729C35.0075 23.5679 33.7354 23.0849 32.6368 22.2239C31.3878 21.2474 30.7634 19.9244 30.7634 18.2549Z" fill="white"/>
<path d="M42.1543 22.2238V23.2948H43.2761V21.2998C42.9176 21.6463 42.5475 21.9508 42.1543 22.2238Z" fill="white"/>
<path d="M57.3041 6.56836C56.1129 6.56836 54.9102 6.86236 53.696 7.46086C53.0252 7.79686 52.4354 8.15386 51.915 8.54236V9.43486V9.52936C52.0422 9.39286 52.181 9.26686 52.3198 9.13036C52.9905 8.51086 53.8116 7.94386 54.8177 7.45036C55.9048 6.91486 56.9803 6.64186 58.0442 6.57886C57.7898 6.57886 57.5585 6.56836 57.3041 6.56836Z" fill="white"/>
<path d="M50.7936 6.97803H49.6719V23.295H50.7936V6.97803Z" fill="white"/>
<path d="M62.924 11.8919C62.924 11.6924 62.9125 11.5034 62.9009 11.3144C62.8084 10.0019 62.4268 9.05693 61.7329 8.47943C60.935 7.81793 59.7901 7.48193 58.2751 7.48193C58.1017 7.48193 57.9166 7.50294 57.7432 7.51344C58.969 7.58694 59.9404 7.90193 60.6227 8.47943C61.4207 9.14093 61.8139 10.2854 61.8139 11.9129V23.2949H62.9356L62.924 11.8919C62.924 11.9024 62.924 11.9024 62.924 11.8919Z" fill="white"/>
<path d="M74.6621 15.5985L82.0518 23.295H83.162L75.275 15.084L74.6621 15.5985Z" fill="white"/>
<path d="M70.4411 0.751465H69.3193V23.295H70.4411V0.751465Z" fill="white"/>
<path d="M83.2781 6.97803H82.1679L71.5518 15.966V16.911L83.2781 6.97803Z" fill="white"/>
</svg>
