<svg width="161" height="30" viewBox="0 0 161 30" fill="none" xmlns="http://www.w3.org/2000/svg">
<path d="M21.733 0.851562H20.7197V23.0147H21.733V0.851562Z" fill="white"/>
<path d="M83.1287 23.4259C80.6906 23.4259 78.7275 22.5723 77.2393 20.865L78.0308 20.1378C79.2341 21.7187 80.9122 22.5407 83.1287 22.5407C84.5852 22.5407 85.7251 22.1929 86.58 21.4973C87.435 20.8018 87.8782 19.9165 87.8782 18.8099C87.8782 17.8931 87.53 17.1659 86.8017 16.66C86.1051 16.1225 85.2185 15.7431 84.2369 15.4902C83.2237 15.2373 82.2105 14.9843 81.1972 14.6998C80.184 14.4152 79.3291 13.9726 78.6325 13.3403C77.9359 12.7079 77.5559 11.8859 77.5559 10.8426C77.5559 9.60953 78.0308 8.5978 79.0124 7.80739C79.994 6.98536 81.3239 6.60596 83.002 6.60596C85.4085 6.60596 87.2766 7.42799 88.5432 9.04043L87.8149 9.70438C86.8017 8.25002 85.1868 7.52284 83.0337 7.52284C81.6722 7.52284 80.5639 7.839 79.7724 8.47133C78.9808 9.10366 78.5691 9.89408 78.5691 10.8742C78.5691 11.6962 78.9174 12.3285 79.6457 12.8344C80.3423 13.3087 81.2289 13.6564 82.2105 13.9094C83.2237 14.1623 84.2369 14.4152 85.2502 14.6998C86.2634 14.9843 87.1183 15.4586 87.8149 16.1541C88.5115 16.8181 88.8915 17.735 88.8915 18.8732C88.8915 20.2011 88.3849 21.3076 87.4033 22.1929C86.4217 22.9833 84.9969 23.4259 83.1287 23.4259Z" fill="white"/>
<path d="M100.543 23.4258C99.3715 23.4258 98.2633 23.1413 97.25 22.5722C96.2368 22.0031 95.4135 21.2443 94.7486 20.2642V29.1484H93.7354V6.98523H94.7486V9.67264C95.3185 8.78737 96.1418 8.06019 97.1867 7.45948C98.2316 6.85877 99.3398 6.57422 100.543 6.57422C102.728 6.57422 104.469 7.33301 105.768 8.88222C107.066 10.3998 107.731 12.4549 107.731 14.9842C107.731 17.5135 107.066 19.537 105.736 21.0862C104.438 22.6354 102.696 23.4258 100.543 23.4258ZM100.543 22.5406C102.443 22.5406 103.931 21.845 105.008 20.4223C106.084 18.9995 106.622 17.1974 106.622 15.0158C106.622 12.8343 106.084 11.0321 105.008 9.6094C103.931 8.18666 102.443 7.4911 100.543 7.4911C99.3398 7.4911 98.1999 7.80726 97.155 8.40798C96.0785 9.04031 95.2869 9.76749 94.7486 10.6844V19.2841C95.2869 20.1693 96.0785 20.9281 97.155 21.5921C98.2316 22.1928 99.3398 22.5406 100.543 22.5406Z" fill="white"/>
<path d="M123.848 23.0147H122.835V21.0545C121.378 22.6353 119.542 23.4257 117.262 23.4257C115.742 23.4257 114.444 22.9515 113.304 21.9713C112.196 21.0228 111.626 19.695 111.626 18.0509C111.626 16.4068 112.196 15.1106 113.304 14.1304C114.412 13.1819 115.742 12.6761 117.262 12.6761C119.51 12.6761 121.378 13.4665 122.835 15.0473V11.443C122.835 10.21 122.392 9.22988 121.537 8.5027C120.682 7.80714 119.605 7.42774 118.307 7.42774C116.249 7.42774 114.539 8.28139 113.146 9.95706L112.386 9.29312C113.209 8.34462 114.064 7.64906 114.982 7.20643C115.901 6.7638 117.009 6.54248 118.307 6.54248C119.954 6.54248 121.283 6.95349 122.297 7.77552C123.31 8.59755 123.816 9.79898 123.816 11.3798V23.0147H123.848ZM117.579 22.5404C119.859 22.5404 121.632 21.7184 122.867 20.0744V16.0907C121.632 14.4466 119.859 13.6246 117.579 13.6246C116.122 13.6246 114.982 14.0356 114.096 14.8892C113.209 15.7429 112.766 16.7862 112.766 18.0509C112.766 19.3156 113.209 20.3589 114.096 21.2125C114.951 22.0978 116.122 22.5404 117.579 22.5404Z" fill="white"/>
<path d="M136.323 23.4258C134.044 23.4258 132.239 22.6038 130.846 20.9914C129.452 19.3473 128.756 17.3555 128.756 14.9842C128.756 12.613 129.452 10.6211 130.846 9.00869C132.239 7.39625 134.075 6.57422 136.323 6.57422C137.558 6.57422 138.603 6.79553 139.458 7.23817C140.313 7.6808 141.105 8.34474 141.833 9.26162L141.105 9.86234C139.933 8.28151 138.35 7.45948 136.418 7.45948C134.392 7.45948 132.809 8.18666 131.637 9.6094C130.466 11.0321 129.864 12.8343 129.864 14.9842C129.864 17.1658 130.466 18.9679 131.637 20.3906C132.84 21.8134 134.424 22.5406 136.418 22.5406C138.35 22.5406 139.901 21.7185 141.105 20.1061L141.833 20.7384C141.105 21.6553 140.313 22.3192 139.458 22.7619C138.603 23.2045 137.558 23.4258 136.323 23.4258Z" fill="white"/>
<path d="M153.01 23.4258C150.667 23.4258 148.767 22.6354 147.311 21.0546C145.854 19.4738 145.126 17.4503 145.126 14.9842C145.126 12.6446 145.854 10.6527 147.279 9.00869C148.736 7.36463 150.509 6.57422 152.662 6.57422C155.005 6.57422 156.842 7.39625 158.14 9.00869C159.501 10.6211 160.135 12.613 160.135 14.9842V15.3004H146.266C146.298 17.3238 146.962 19.0627 148.166 20.4223C149.401 21.8134 151.015 22.5089 153.01 22.5089C155.227 22.5089 157.095 21.6869 158.615 20.0745L159.216 20.7068C157.475 22.5406 155.417 23.4258 153.01 23.4258ZM159.09 14.4151C159.09 13.3402 158.868 12.2652 158.425 11.2535C157.981 10.2101 157.253 9.32486 156.24 8.59768C155.227 7.8705 154.023 7.4911 152.662 7.4911C150.73 7.4911 149.211 8.21828 148.071 9.64102C146.931 11.0638 146.329 12.6762 146.266 14.4467H159.09V14.4151Z" fill="white"/>
<path d="M76.2574 25.9551H0.866211V26.7455H76.2574V25.9551Z" fill="white"/>
<path d="M8.65565 6.57422C7.4841 6.57422 6.37587 6.85877 5.36263 7.42786C4.79268 7.74403 4.31773 8.12343 3.84277 8.56606V9.51455V9.76749C4.00109 9.51455 4.19107 9.29324 4.38106 9.07192C4.951 8.40798 5.61594 7.87049 6.37587 7.45948C7.26245 6.95362 8.21236 6.70068 9.2256 6.63745C9.03562 6.57422 8.84563 6.57422 8.65565 6.57422Z" fill="white"/>
<path d="M13.1515 9.60952C14.228 11.0323 14.7663 12.8344 14.7663 15.0159C14.7663 17.1975 14.228 18.9996 13.1515 20.4224C12.1699 21.687 10.8717 22.3826 9.25684 22.5091C9.38349 22.5091 9.54181 22.5407 9.66846 22.5407C11.5683 22.5407 13.0565 21.8451 14.133 20.4224C15.2096 18.9996 15.7479 17.2291 15.7479 15.0159C15.7479 12.8344 15.2096 11.0006 14.133 9.60952C13.0565 8.18677 11.5683 7.49121 9.66846 7.49121C9.54181 7.49121 9.38349 7.52283 9.25684 7.52283C10.8717 7.61768 12.1699 8.31324 13.1515 9.60952Z" fill="white"/>
<path d="M2.86146 19.3472V10.7159V9.73581V0.851562H1.87988V23.0147H2.86146V20.3273V19.3472Z" fill="white"/>
<path d="M6.31213 22.5403C5.52054 22.0977 4.8556 21.5602 4.34898 20.9595C4.19066 20.7698 4.03234 20.5485 3.87402 20.3271V20.5485V21.497C4.28565 21.8764 4.76061 22.2241 5.29889 22.5403C6.34379 23.141 7.45202 23.4256 8.65524 23.4256C8.84522 23.4256 9.03521 23.4256 9.22519 23.3939C8.21195 23.3307 7.23037 23.0462 6.31213 22.5403Z" fill="white"/>
<path d="M38.8306 11.443C38.8306 10.21 38.3873 9.22988 37.5324 8.5027C36.6774 7.80713 35.6009 7.42773 34.3027 7.42773C34.1444 7.42773 33.986 7.42773 33.8594 7.45935C34.9043 7.5542 35.7909 7.90198 36.5508 8.5027C37.4057 9.19826 37.849 10.1784 37.849 11.443V14.1621C38.1973 14.415 38.5456 14.7312 38.8622 15.0789V11.443H38.8306Z" fill="white"/>
<path d="M37.8182 15.016C37.7549 14.9528 37.6915 14.9212 37.5965 14.8579C36.4883 14.0359 35.1268 13.5933 33.5119 13.5933C33.3219 13.5933 33.1636 13.5933 32.9736 13.6249C35.0318 13.7197 36.6466 14.5418 37.8182 16.0594V20.043C36.6466 21.5606 35.0318 22.3827 32.9736 22.4775C33.1636 22.4775 33.3219 22.5091 33.5119 22.5091C35.1268 22.5091 36.4883 22.0981 37.5965 21.2445C37.6599 21.1812 37.7549 21.1496 37.8182 21.0864C38.1665 20.7702 38.5148 20.4224 38.8314 20.043V16.0594C38.5148 15.68 38.1981 15.3322 37.8182 15.016Z" fill="white"/>
<path d="M33.8914 6.5741C33.7015 6.5741 33.5115 6.54248 33.3215 6.54248C32.0233 6.54248 30.9151 6.7638 29.9968 7.20643C29.0786 7.64906 28.2236 8.34462 27.4004 9.29312L28.1603 9.95706C29.4902 7.11158 32.7516 6.63733 33.8914 6.5741Z" fill="white"/>
<path d="M27.6534 18.0823C27.6534 16.4383 28.2234 15.142 29.3316 14.1619C30.3132 13.3082 31.4531 12.834 32.783 12.7391C32.6246 12.7391 32.4663 12.7075 32.308 12.7075C30.7882 12.7075 29.4583 13.1818 28.3501 14.1619C27.2418 15.1104 26.6719 16.4383 26.6719 18.0823C26.6719 19.7264 27.2418 21.0227 28.3501 22.0028C29.4583 22.9513 30.7882 23.4571 32.308 23.4571C32.4663 23.4571 32.6246 23.4571 32.783 23.4255C31.4848 23.3307 30.3449 22.8564 29.3633 22.0028C28.1917 21.0227 27.6534 19.7264 27.6534 18.0823Z" fill="white"/>
<path d="M37.8174 21.9716V23.0149H38.8306V21.0547C38.514 21.4025 38.1657 21.687 37.8174 21.9716Z" fill="white"/>
<path d="M56.4043 11.2534C56.4043 11.4431 56.436 11.6328 56.436 11.8225C56.4043 11.6012 56.4043 11.4115 56.4043 11.2534Z" fill="white"/>
<path d="M51.3695 6.57422C50.293 6.57422 49.2164 6.85877 48.1398 7.45948C47.5382 7.77565 46.9999 8.15504 46.5566 8.53444V9.41971V9.51455C46.6833 9.38809 46.8099 9.26162 46.9366 9.13516C47.5382 8.53444 48.2665 7.96535 49.1531 7.4911C50.1346 6.95362 51.0845 6.70068 52.0345 6.63745C51.8128 6.57422 51.5912 6.57422 51.3695 6.57422Z" fill="white"/>
<path d="M45.5441 6.98535H44.5625V23.0149H45.5441V6.98535Z" fill="white"/>
<path d="M56.4046 11.8227C56.4046 11.633 56.4046 11.4433 56.3729 11.2536C56.3096 9.9573 55.9296 9.04042 55.328 8.47132C54.6314 7.80738 53.5865 7.49121 52.225 7.49121C52.0666 7.49121 51.9083 7.52283 51.75 7.52283C52.8582 7.58606 53.7132 7.90223 54.3148 8.47132C55.0114 9.13527 55.3913 10.2418 55.3913 11.8543V23.0465H56.4046V11.8227Z" fill="white"/>
<path d="M66.917 15.4585L73.5347 23.0148H74.5163L67.4553 14.9526L66.917 15.4585Z" fill="white"/>
<path d="M63.1173 0.851562H62.1357V23.0147H63.1173V0.851562Z" fill="white"/>
<path d="M74.6106 6.98535H73.629L64.1299 15.8064V16.7549L74.6106 6.98535Z" fill="white"/>
</svg>
