<svg width="359" height="50" viewBox="0 0 359 50" fill="none" xmlns="http://www.w3.org/2000/svg">
<path d="M22.5 2.4502V17.7302C15.5576 16.4602 8.4424 16.4602 1.5 17.7302V2.4502C8.4424 3.7202 15.5576 3.7202 22.5 2.4502Z" stroke="#787878" stroke-width="1.91" stroke-miterlimit="10"/>
<path d="M12 21.55V16.77" stroke="#787878" stroke-width="1.91" stroke-miterlimit="10"/>
<path d="M7.23047 21.5498H16.7705" stroke="#787878" stroke-width="1.91" stroke-miterlimit="10"/>
<path d="M8.0975 45H6.4595V37.104H3.6315V35.662H10.9255V37.104H8.0975V45ZM17.0666 45H15.0226L11.3546 35.662H13.2166L16.0446 43.222L18.8726 35.662H20.7346L17.0666 45Z" fill="#787878"/>
<path d="M74.6294 1.5H59.3594V22.5H74.6294V1.5Z" stroke="#787878" stroke-width="1.91" stroke-miterlimit="10"/>
<path d="M66.9997 19.64C69.1094 19.64 70.8197 17.9297 70.8197 15.82C70.8197 13.7103 69.1094 12 66.9997 12C64.89 12 63.1797 13.7103 63.1797 15.82C63.1797 17.9297 64.89 19.64 66.9997 19.64Z" stroke="#787878" stroke-width="1.91" stroke-miterlimit="10"/>
<path d="M66.9998 8.17986C68.0547 8.17986 68.9098 7.32473 68.9098 6.26986C68.9098 5.215 68.0547 4.35986 66.9998 4.35986C65.945 4.35986 65.0898 5.215 65.0898 6.26986C65.0898 7.32473 65.945 8.17986 66.9998 8.17986Z" stroke="#787878" stroke-width="1.91" stroke-miterlimit="10"/>
<path d="M67.0008 16.7701C67.5255 16.7701 67.9508 16.3448 67.9508 15.8201C67.9508 15.2954 67.5255 14.8701 67.0008 14.8701C66.4761 14.8701 66.0508 15.2954 66.0508 15.8201C66.0508 16.3448 66.4761 16.7701 67.0008 16.7701Z" fill="#787878"/>
<path d="M45.2968 45.168C43.5748 45.168 42.3288 44.566 41.5028 43.684L42.4128 42.424C43.0568 43.11 44.0648 43.712 45.3668 43.712C46.7108 43.712 47.2428 43.054 47.2428 42.438C47.2428 40.478 41.7968 41.696 41.7968 38.252C41.7968 36.712 43.1548 35.522 45.1988 35.522C46.6548 35.522 47.8308 35.984 48.6988 36.824L47.7608 38.042C47.0328 37.314 46.0388 36.978 45.0588 36.978C44.0928 36.978 43.4768 37.44 43.4768 38.14C43.4768 39.876 48.9088 38.798 48.9088 42.284C48.9088 43.838 47.8168 45.168 45.2968 45.168ZM54.0363 45.168C53.1823 45.168 52.4123 44.79 51.8663 44.062V47.576H50.3963V38.238H51.8663V39.162C52.3703 38.49 53.1543 38.07 54.0363 38.07C55.7863 38.07 57.0323 39.386 57.0323 41.612C57.0323 43.838 55.7863 45.168 54.0363 45.168ZM53.6023 43.866C54.7643 43.866 55.5063 42.928 55.5063 41.612C55.5063 40.31 54.7643 39.372 53.6023 39.372C52.9163 39.372 52.1883 39.778 51.8663 40.282V42.956C52.1883 43.446 52.9163 43.866 53.6023 43.866ZM61.6331 45.168C59.6031 45.168 58.0911 43.754 58.0911 41.612C58.0911 39.652 59.5191 38.07 61.5211 38.07C63.5511 38.07 64.8531 39.624 64.8531 41.752V42.102H59.6311C59.7431 43.124 60.5131 43.964 61.7871 43.964C62.4451 43.964 63.2291 43.698 63.7051 43.222L64.3771 44.188C63.7051 44.832 62.7111 45.168 61.6331 45.168ZM63.4251 41.066C63.3971 40.268 62.8511 39.274 61.5211 39.274C60.2611 39.274 59.6871 40.24 59.6171 41.066H63.4251ZM71.925 45H70.455V44.272C69.951 44.846 69.167 45.168 68.271 45.168C67.165 45.168 65.919 44.426 65.919 42.928C65.919 41.374 67.165 40.73 68.271 40.73C69.181 40.73 69.965 41.024 70.455 41.598V40.59C70.455 39.806 69.811 39.33 68.873 39.33C68.117 39.33 67.459 39.61 66.871 40.184L66.269 39.162C67.053 38.42 68.033 38.07 69.111 38.07C70.609 38.07 71.925 38.7 71.925 40.52V45ZM68.845 44.16C69.489 44.16 70.119 43.922 70.455 43.46V42.438C70.119 41.976 69.489 41.738 68.845 41.738C68.019 41.738 67.403 42.214 67.403 42.956C67.403 43.684 68.019 44.16 68.845 44.16ZM80.1799 45H78.3319L76.2599 42.214L75.3219 43.18V45H73.8519V35.662H75.3219V41.5L78.3039 38.238H80.1239L77.3099 41.304L80.1799 45ZM84.2957 45.168C82.2657 45.168 80.7537 43.754 80.7537 41.612C80.7537 39.652 82.1817 38.07 84.1837 38.07C86.2137 38.07 87.5157 39.624 87.5157 41.752V42.102H82.2937C82.4057 43.124 83.1757 43.964 84.4497 43.964C85.1077 43.964 85.8917 43.698 86.3677 43.222L87.0397 44.188C86.3677 44.832 85.3737 45.168 84.2957 45.168ZM86.0877 41.066C86.0597 40.268 85.5137 39.274 84.1837 39.274C82.9237 39.274 82.3497 40.24 82.2797 41.066H86.0877ZM90.4577 45H88.9877V38.238H90.4577V39.232C90.9617 38.588 91.7737 38.084 92.6557 38.084V39.54C92.5297 39.512 92.3757 39.498 92.1937 39.498C91.5777 39.498 90.7517 39.918 90.4577 40.394V45Z" fill="#787878"/>
<path d="M147.511 1.5H147.501C144.861 1.5 142.721 3.64008 142.721 6.28V12.02C142.721 14.6599 144.861 16.8 147.501 16.8H147.511C150.151 16.8 152.291 14.6599 152.291 12.02V6.28C152.291 3.64008 150.151 1.5 147.511 1.5Z" stroke="#787878" stroke-width="1.91" stroke-miterlimit="10"/>
<path d="M156.111 12C156.113 13.1324 155.893 14.2541 155.461 15.301C155.029 16.348 154.396 17.2995 153.596 18.1011C152.796 18.9028 151.846 19.5388 150.8 19.9727C149.754 20.4066 148.633 20.63 147.501 20.63C146.368 20.63 145.247 20.4066 144.201 19.9727C143.155 19.5388 142.205 18.9028 141.405 18.1011C140.606 17.2995 139.972 16.348 139.54 15.301C139.109 14.2541 138.888 13.1324 138.891 12" stroke="#787878" stroke-width="1.91" stroke-miterlimit="10"/>
<path d="M147.5 23.4999V20.6299" stroke="#787878" stroke-width="1.91" stroke-miterlimit="10"/>
<path d="M120.743 45H119.105V38.07L116.235 45H115.535L112.679 38.07V45H111.041V35.662H113.351L115.885 41.808L118.433 35.662H120.743V45ZM123.438 37.412C122.948 37.412 122.528 37.006 122.528 36.502C122.528 35.998 122.948 35.592 123.438 35.592C123.942 35.592 124.348 35.998 124.348 36.502C124.348 37.006 123.942 37.412 123.438 37.412ZM124.18 45H122.71V38.238H124.18V45ZM129.188 45.168C127.13 45.168 125.688 43.67 125.688 41.612C125.688 39.568 127.13 38.07 129.188 38.07C130.504 38.07 131.302 38.63 131.778 39.274L130.812 40.17C130.434 39.638 129.916 39.372 129.258 39.372C128.026 39.372 127.214 40.296 127.214 41.612C127.214 42.928 128.026 43.866 129.258 43.866C129.916 43.866 130.434 43.586 130.812 43.068L131.778 43.964C131.302 44.608 130.504 45.168 129.188 45.168ZM134.557 45H133.087V38.238H134.557V39.232C135.061 38.588 135.873 38.084 136.755 38.084V39.54C136.629 39.512 136.475 39.498 136.293 39.498C135.677 39.498 134.851 39.918 134.557 40.394V45ZM141.014 45.168C138.872 45.168 137.542 43.558 137.542 41.612C137.542 39.68 138.872 38.07 141.014 38.07C143.184 38.07 144.5 39.68 144.5 41.612C144.5 43.558 143.184 45.168 141.014 45.168ZM141.014 43.866C142.274 43.866 142.974 42.816 142.974 41.612C142.974 40.422 142.274 39.372 141.014 39.372C139.768 39.372 139.068 40.422 139.068 41.612C139.068 42.816 139.768 43.866 141.014 43.866ZM149.648 45.168C148.794 45.168 148.024 44.79 147.478 44.062V47.576H146.008V38.238H147.478V39.162C147.982 38.49 148.766 38.07 149.648 38.07C151.398 38.07 152.644 39.386 152.644 41.612C152.644 43.838 151.398 45.168 149.648 45.168ZM149.214 43.866C150.376 43.866 151.118 42.928 151.118 41.612C151.118 40.31 150.376 39.372 149.214 39.372C148.528 39.372 147.8 39.778 147.478 40.282V42.956C147.8 43.446 148.528 43.866 149.214 43.866ZM160.171 45H158.701V40.744C158.701 39.694 158.155 39.372 157.329 39.372C156.587 39.372 155.943 39.82 155.593 40.282V45H154.123V35.662H155.593V39.162C156.041 38.63 156.923 38.07 157.987 38.07C159.443 38.07 160.171 38.826 160.171 40.212V45ZM165.153 45.168C163.011 45.168 161.681 43.558 161.681 41.612C161.681 39.68 163.011 38.07 165.153 38.07C167.323 38.07 168.639 39.68 168.639 41.612C168.639 43.558 167.323 45.168 165.153 45.168ZM165.153 43.866C166.413 43.866 167.113 42.816 167.113 41.612C167.113 40.422 166.413 39.372 165.153 39.372C163.907 39.372 163.207 40.422 163.207 41.612C163.207 42.816 163.907 43.866 165.153 43.866ZM176.182 45H174.712V40.772C174.712 39.722 174.18 39.372 173.354 39.372C172.598 39.372 171.954 39.82 171.618 40.282V45H170.148V38.238H171.618V39.162C172.066 38.63 172.934 38.07 173.998 38.07C175.454 38.07 176.182 38.854 176.182 40.24V45ZM181.234 45.168C179.204 45.168 177.692 43.754 177.692 41.612C177.692 39.652 179.12 38.07 181.122 38.07C183.152 38.07 184.454 39.624 184.454 41.752V42.102H179.232C179.344 43.124 180.114 43.964 181.388 43.964C182.046 43.964 182.83 43.698 183.306 43.222L183.978 44.188C183.306 44.832 182.312 45.168 181.234 45.168ZM183.026 41.066C182.998 40.268 182.452 39.274 181.122 39.274C179.862 39.274 179.288 40.24 179.218 41.066H183.026Z" fill="#787878"/>
<path d="M234.77 9.14014H219.5V21.5501H234.77V9.14014Z" stroke="#787878" stroke-width="1.91" stroke-miterlimit="10"/>
<path d="M234.77 17.7301L239.55 21.5501H240.5V9.14014H239.55L234.77 12.9601V17.7301Z" stroke="#787878" stroke-width="1.91" stroke-miterlimit="10"/>
<path d="M222.84 9.13996C224.685 9.13996 226.18 7.64459 226.18 5.79996C226.18 3.95533 224.685 2.45996 222.84 2.45996C220.995 2.45996 219.5 3.95533 219.5 5.79996C219.5 7.64459 220.995 9.13996 222.84 9.13996Z" stroke="#787878" stroke-width="1.91" stroke-miterlimit="10"/>
<path d="M231.43 9.13996C233.274 9.13996 234.77 7.64459 234.77 5.79996C234.77 3.95533 233.274 2.45996 231.43 2.45996C229.585 2.45996 228.09 3.95533 228.09 5.79996C228.09 7.64459 229.585 9.13996 231.43 9.13996Z" stroke="#787878" stroke-width="1.91" stroke-miterlimit="10"/>
<path d="M225.23 16.7702V13.9102L228.09 15.3402L225.23 16.7702Z" stroke="#787878" stroke-width="1.91" stroke-miterlimit="10"/>
<path d="M204.111 45H202.473V35.662H206.575C208.535 35.662 209.627 37.006 209.627 38.588C209.627 40.17 208.521 41.514 206.575 41.514H204.111V45ZM206.351 40.072C207.275 40.072 207.947 39.484 207.947 38.588C207.947 37.692 207.275 37.104 206.351 37.104H204.111V40.072H206.351ZM212.439 45H210.969V38.238H212.439V39.232C212.943 38.588 213.755 38.084 214.637 38.084V39.54C214.511 39.512 214.357 39.498 214.175 39.498C213.559 39.498 212.733 39.918 212.439 40.394V45ZM218.896 45.168C216.754 45.168 215.424 43.558 215.424 41.612C215.424 39.68 216.754 38.07 218.896 38.07C221.066 38.07 222.382 39.68 222.382 41.612C222.382 43.558 221.066 45.168 218.896 45.168ZM218.896 43.866C220.156 43.866 220.856 42.816 220.856 41.612C220.856 40.422 220.156 39.372 218.896 39.372C217.65 39.372 216.95 40.422 216.95 41.612C216.95 42.816 217.65 43.866 218.896 43.866ZM224.618 37.412C224.128 37.412 223.708 37.006 223.708 36.502C223.708 35.998 224.128 35.592 224.618 35.592C225.122 35.592 225.528 35.998 225.528 36.502C225.528 37.006 225.122 37.412 224.618 37.412ZM223.12 47.744C222.336 47.744 221.986 47.59 221.524 47.254L221.958 46.162C222.21 46.386 222.476 46.54 222.896 46.54C223.47 46.54 223.89 46.19 223.89 45.392V38.238H225.36V45.392C225.36 46.834 224.604 47.744 223.12 47.744ZM230.41 45.168C228.38 45.168 226.868 43.754 226.868 41.612C226.868 39.652 228.296 38.07 230.298 38.07C232.328 38.07 233.63 39.624 233.63 41.752V42.102H228.408C228.52 43.124 229.29 43.964 230.564 43.964C231.222 43.964 232.006 43.698 232.482 43.222L233.154 44.188C232.482 44.832 231.488 45.168 230.41 45.168ZM232.202 41.066C232.174 40.268 231.628 39.274 230.298 39.274C229.038 39.274 228.464 40.24 228.394 41.066H232.202ZM238.182 45.168C236.124 45.168 234.682 43.67 234.682 41.612C234.682 39.568 236.124 38.07 238.182 38.07C239.498 38.07 240.296 38.63 240.772 39.274L239.806 40.17C239.428 39.638 238.91 39.372 238.252 39.372C237.02 39.372 236.208 40.296 236.208 41.612C236.208 42.928 237.02 43.866 238.252 43.866C238.91 43.866 239.428 43.586 239.806 43.068L240.772 43.964C240.296 44.608 239.498 45.168 238.182 45.168ZM244.112 45.168C242.978 45.168 242.376 44.552 242.376 43.432V39.526H241.256V38.238H242.376V36.39H243.846V38.238H245.218V39.526H243.846V43.068C243.846 43.53 244.07 43.866 244.49 43.866C244.77 43.866 245.036 43.754 245.148 43.628L245.498 44.734C245.232 44.986 244.798 45.168 244.112 45.168ZM249.626 45.168C247.484 45.168 246.154 43.558 246.154 41.612C246.154 39.68 247.484 38.07 249.626 38.07C251.796 38.07 253.112 39.68 253.112 41.612C253.112 43.558 251.796 45.168 249.626 45.168ZM249.626 43.866C250.886 43.866 251.586 42.816 251.586 41.612C251.586 40.422 250.886 39.372 249.626 39.372C248.38 39.372 247.68 40.422 247.68 41.612C247.68 42.816 248.38 43.866 249.626 43.866ZM256.09 45H254.62V38.238H256.09V39.232C256.594 38.588 257.406 38.084 258.288 38.084V39.54C258.162 39.512 258.008 39.498 257.826 39.498C257.21 39.498 256.384 39.918 256.09 40.394V45Z" fill="#787878"/>
<path d="M300.631 4.3501H283.381V8.1801H300.631V4.3501Z" stroke="#787878" stroke-width="1.92" stroke-miterlimit="10"/>
<path d="M303.5 4.3501H280.5" stroke="#787878" stroke-width="1.92" stroke-miterlimit="10"/>
<path d="M283.381 20.6499V8.18994" stroke="#787878" stroke-width="1.92" stroke-miterlimit="10"/>
<path d="M300.631 20.6499V8.18994" stroke="#787878" stroke-width="1.92" stroke-miterlimit="10"/>
<path d="M279.965 45H278.327V37.104H275.499V35.662H282.793V37.104H279.965V45ZM288.571 45H287.101V44.272C286.597 44.846 285.813 45.168 284.917 45.168C283.811 45.168 282.565 44.426 282.565 42.928C282.565 41.374 283.811 40.73 284.917 40.73C285.827 40.73 286.611 41.024 287.101 41.598V40.59C287.101 39.806 286.457 39.33 285.519 39.33C284.763 39.33 284.105 39.61 283.517 40.184L282.915 39.162C283.699 38.42 284.679 38.07 285.757 38.07C287.255 38.07 288.571 38.7 288.571 40.52V45ZM285.491 44.16C286.135 44.16 286.765 43.922 287.101 43.46V42.438C286.765 41.976 286.135 41.738 285.491 41.738C284.665 41.738 284.049 42.214 284.049 42.956C284.049 43.684 284.665 44.16 285.491 44.16ZM291.968 42.97C292.29 43.474 293.018 43.866 293.704 43.866C294.88 43.866 295.622 42.942 295.622 41.626C295.622 40.31 294.88 39.372 293.704 39.372C293.018 39.372 292.29 39.792 291.968 40.296V42.97ZM291.968 45H290.498V35.662H291.968V39.176C292.5 38.462 293.284 38.07 294.138 38.07C295.874 38.07 297.134 39.442 297.134 41.626C297.134 43.852 295.86 45.168 294.138 45.168C293.256 45.168 292.486 44.748 291.968 44.076V45ZM300.124 45H298.654V35.662H300.124V45ZM305.174 45.168C303.144 45.168 301.632 43.754 301.632 41.612C301.632 39.652 303.06 38.07 305.062 38.07C307.092 38.07 308.394 39.624 308.394 41.752V42.102H303.172C303.284 43.124 304.054 43.964 305.328 43.964C305.986 43.964 306.77 43.698 307.246 43.222L307.918 44.188C307.246 44.832 306.252 45.168 305.174 45.168ZM306.966 41.066C306.938 40.268 306.392 39.274 305.062 39.274C303.802 39.274 303.228 40.24 303.158 41.066H306.966Z" fill="#787878"/>
<path d="M337.221 13H346.791C347.297 13 347.783 13.2013 348.141 13.5595C348.5 13.9176 348.701 14.4035 348.701 14.91V16.8H335.301V14.89C335.306 14.3852 335.511 13.903 335.871 13.5488C336.231 13.1947 336.716 12.9974 337.221 13Z" stroke="#787878" stroke-width="1.91" stroke-miterlimit="10"/>
<path d="M347.74 4.37002V7.24002H336.26V4.37002C336.258 3.99275 336.332 3.61896 336.476 3.27015C336.619 2.92135 336.831 2.60444 337.097 2.33767C337.364 2.07091 337.681 1.85955 338.03 1.71579C338.379 1.57203 338.753 1.4987 339.13 1.50002H344.87C345.247 1.4987 345.621 1.57203 345.97 1.71579C346.318 1.85955 346.635 2.07091 346.902 2.33767C347.169 2.60444 347.38 2.92135 347.524 3.27015C347.668 3.61896 347.741 3.99275 347.74 4.37002Z" stroke="#787878" stroke-width="1.91" stroke-miterlimit="10"/>
<path d="M346.791 7.24023H337.221V12.9802H346.791V7.24023Z" stroke="#787878" stroke-width="1.91" stroke-miterlimit="10"/>
<path d="M337.221 23.4998V16.7998H346.781V23.4998" stroke="#787878" stroke-width="1.91" stroke-miterlimit="10"/>
<path d="M330.814 45.168C328.056 45.168 325.914 43.208 325.914 40.338C325.914 37.468 328.056 35.508 330.814 35.508C332.704 35.508 333.866 36.488 334.566 37.608L333.166 38.322C332.718 37.552 331.822 36.964 330.814 36.964C328.966 36.964 327.594 38.378 327.594 40.338C327.594 42.298 328.966 43.712 330.814 43.712C331.822 43.712 332.718 43.138 333.166 42.354L334.566 43.068C333.852 44.188 332.704 45.168 330.814 45.168ZM341.904 45H340.434V40.744C340.434 39.694 339.888 39.372 339.062 39.372C338.32 39.372 337.676 39.82 337.326 40.282V45H335.856V35.662H337.326V39.162C337.774 38.63 338.656 38.07 339.72 38.07C341.176 38.07 341.904 38.826 341.904 40.212V45ZM349.434 45H347.964V44.272C347.46 44.846 346.676 45.168 345.78 45.168C344.674 45.168 343.428 44.426 343.428 42.928C343.428 41.374 344.674 40.73 345.78 40.73C346.69 40.73 347.474 41.024 347.964 41.598V40.59C347.964 39.806 347.32 39.33 346.382 39.33C345.626 39.33 344.968 39.61 344.38 40.184L343.778 39.162C344.562 38.42 345.542 38.07 346.62 38.07C348.118 38.07 349.434 38.7 349.434 40.52V45ZM346.354 44.16C346.998 44.16 347.628 43.922 347.964 43.46V42.438C347.628 41.976 346.998 41.738 346.354 41.738C345.528 41.738 344.912 42.214 344.912 42.956C344.912 43.684 345.528 44.16 346.354 44.16ZM352.089 37.412C351.599 37.412 351.179 37.006 351.179 36.502C351.179 35.998 351.599 35.592 352.089 35.592C352.593 35.592 352.999 35.998 352.999 36.502C352.999 37.006 352.593 37.412 352.089 37.412ZM352.831 45H351.361V38.238H352.831V45ZM356.229 45H354.759V38.238H356.229V39.232C356.733 38.588 357.545 38.084 358.427 38.084V39.54C358.301 39.512 358.147 39.498 357.965 39.498C357.349 39.498 356.523 39.918 356.229 40.394V45Z" fill="#787878"/>
</svg>
